HIERARCHY
ROOT ui
{
	 OFFSET 0 0 0
	 CHANNELS 3 XPosition YPosition Z Position
	 EndSite
	 {
	 OFFSET 0 -1 0
	 }
}
ROOT li
{
	 OFFSET 0 0 0
	 CHANNELS 3 XPosition YPosition Z Position
	 EndSite
	 {
	 OFFSET 0 -1 0
	 }
}
ROOT ul
{
	 OFFSET 0 0 0
	 CHANNELS 3 XPosition YPosition Z Position
	 EndSite
	 {
	 OFFSET 0 -1 0
	 }
}
ROOT ll
{
	 OFFSET 0 0 0
	 CHANNELS 3 XPosition YPosition Z Position
	 EndSite
	 {
	 OFFSET 0 -1 0
	 }
}
ROOT tt
{
	 OFFSET 0 0 0
	 CHANNELS 3 XPosition YPosition Z Position
	 EndSite
	 {
	 OFFSET 0 -1 0
	 }
}
ROOT tb
{
	 OFFSET 0 0 0
	 CHANNELS 3 XPosition YPosition Z Position
	 EndSite
	 {
	 OFFSET 0 -1 0
	 }
}
ROOT td
{
	 OFFSET 0 0 0
	 CHANNELS 3 XPosition YPosition Z Position
	 EndSite
	 {
	 OFFSET 0 -1 0
	 }
}
ROOT v
{
	 OFFSET 0 0 0
	 CHANNELS 3 XPosition YPosition Z Position
	 EndSite
	 {
	 OFFSET 0 -1 0
	 }
}
ROOT bn
{
	 OFFSET 0 0 0
	 CHANNELS 3 XPosition YPosition Z Position
	 EndSite
	 {
	 OFFSET 0 -1 0
	 }
}
MOTION
Frames: 18
Frame Time: 0.002
-0.0012595200538635255	-0.0014039900302886964	0		0.5210093994140625	-2.497809326171875	0		-1.2361871337890624	-0.1556891326904297	0		-0.8377559204101562	-2.134580810546875	0		0.6263703002929687	-0.7909442749023438	0		2.471324462890625	-0.13489765930175782	0		3.997553466796875	0.629957275390625	0		5.5967529296875	0.21785842895507812	0		-0.20819566345214843	5.8754814453125	0		
-0.007098748207092285	-0.008782456398010254	0		0.4682655334472656	-2.49164013671875	0		-1.234947021484375	-0.15612042236328125	0		-0.8494935302734375	-2.128867431640625	0		0.646652587890625	-0.7866502075195313	0		2.454506591796875	-0.14020755004882812	0		3.990052978515625	0.6494993286132813	0		5.60702587890625	0.21914610290527345	0		-0.17373330688476563	5.88062939453125	0		
-0.014776940345764161	-1.5586799383163452E-4	0		0.5114201049804687	-2.491636962890625	0		-1.2337376708984376	-0.15656747436523438	0		-0.8523975830078125	-2.134276611328125	0		0.6448089599609375	-0.7901124267578125	0		2.41681494140625	-0.13228874206542968	0		3.96936962890625	0.6561727294921875	0		5.595150390625	0.2106686248779297	0		-0.17235923767089845	5.8801533203125	0		
-0.057704235076904295	-0.008122265815734863	0		0.45243408203125	-2.498426513671875	0		-1.2156619873046874	-0.1642311553955078	0		-0.8512935791015624	-2.134747802734375	0		0.6489876098632813	-0.7876629638671875	0		2.41289306640625	-0.13979359436035158	0		3.97071044921875	0.6685615844726562	0		5.6110087890625	0.18383335876464843	0		-0.18798678588867188	5.88286669921875	0		
0.007516483783721924	6.021569967269897E-4	0		0.5134713745117188	-2.498668701171875	0		-1.20647802734375	-0.15779742431640625	0		-0.8461930541992188	-2.13027685546875	0		0.6620801391601563	-0.7873333740234375	0		2.425258056640625	-0.11850691223144531	0		3.959836669921875	0.6680795288085938	0		5.617251953125	0.19409622192382814	0		-0.17355995178222655	5.89420849609375	0		
-0.0013355720043182373	0.009210058212280273	0		0.4686753845214844	-2.47864306640625	0		-1.21832275390625	-0.14811485290527343	0		-0.85130615234375	-2.13768896484375	0		0.65108251953125	-0.7887213745117188	0		2.37717578125	-0.12850372314453126	0		3.942897705078125	0.6676591796875	0		5.61507958984375	0.17544355773925782	0		-0.23763124084472656	5.86948828125	0		
-0.010498635292053223	-0.002180638074874878	0		0.5092444152832031	-2.505653564453125	0		-1.22544287109375	-0.15548959350585936	0		-0.8554683227539063	-2.1431123046875	0		0.6430623168945313	-0.7861469116210937	0		2.384273193359375	-0.11816871643066407	0		3.931877685546875	0.666160888671875	0		5.621017578125	0.1716840515136719	0		-0.20239700317382814	5.87457177734375	0		
-0.0035164120197296142	0.004237389087677002	0		0.46428939819335935	-2.486623291015625	0		-1.220502197265625	-0.15200498962402345	0		-0.8196958618164063	-2.14801611328125	0		0.6509808959960938	-0.782763427734375	0		2.399995849609375	-0.13294129943847657	0		3.9237265625	0.6596253662109375	0		5.63998095703125	0.17576155090332032	0		-0.20129574584960938	5.87406982421875	0		
-0.008774784088134766	-0.0031907639503479003	0		0.4749286193847656	-2.4952626953125	0		-1.202767822265625	-0.15966958618164062	0		-0.8938922119140625	-2.143575927734375	0		0.64473095703125	-0.7872030029296875	0		2.3921708984375	-0.10442153930664062	0		3.9246494140625	0.6649827880859375	0		5.67215185546875	0.20267869567871094	0		-0.1661889953613281	5.8791611328125	0		
0.002114509105682373	0.007195316791534424	0		0.48854339599609375	-2.499929931640625	0		-1.2068099365234375	-0.14305714416503906	0		-0.8532177124023438	-2.14452294921875	0		0.6336054077148437	-0.7755723266601563	0		2.376631103515625	-0.12880328369140626	0		3.925429443359375	0.6643478393554687	0		5.71205859375	0.21350282287597655	0		-0.15009707641601563	5.88849169921875	0		
-0.0012461190223693847	0.002766552925109863	0		0.46831100463867187	-2.486169921875	0		-1.2101761474609376	-0.14744085693359374	0		-0.8665720825195312	-2.1417978515625	0		0.6342642822265625	-0.7760739135742187	0		2.38853369140625	-0.11150587463378907	0		3.888132568359375	0.66318896484375	0		5.72898583984375	0.23161460876464843	0		-0.19838206481933593	5.87262060546875	0		
-6.235250234603881E-4	0.0023041369915008545	0		0.4937757873535156	-2.49195703125	0		-1.1325772705078125	-0.14980311584472655	0		-0.831094970703125	-2.147656982421875	0		0.6287717895507813	-0.7834862670898437	0		2.396041015625	-0.12114434051513671	0		3.8887802734375	0.662578857421875	0		5.74175146484375	0.241786376953125	0		-0.1985242156982422	5.873177734375	0		
-0.006149003028869629	-0.005066928863525391	0		0.465254150390625	-2.491064208984375	0		-1.2090047607421874	-0.14825611877441405	0		-0.8726392822265625	-2.149552734375	0		0.6174505004882812	-0.7718092041015625	0		2.3568212890625	-0.10319107055664062	0		3.8763671875	0.66214306640625	0		5.777318359375	0.2406874237060547	0		-0.19773678588867188	5.872740234375	0		
-0.002598440885543823	-0.0015314799547195435	0		0.47758270263671876	-2.497657958984375	0		-1.208509033203125	-0.14863601684570313	0		-0.8623095092773437	-2.15706884765625	0		0.6297724609375	-0.7844082641601563	0		2.4049814453125	-0.13130238342285155	0		3.871734375	0.6486260986328125	0		5.78992724609375	0.24788401794433593	0		-0.16577192687988282	5.890935546875	0		
0.007971840858459473	0.00793609619140625	0		0.46594384765625	-2.496935791015625	0		-1.183057373046875	-0.14830583190917968	0		-0.8578988647460938	-2.153492431640625	0		0.6393117065429688	-0.7749534301757812	0		2.388833740234375	-0.09859743499755859	0		3.868368896484375	0.6611130981445312	0		5.81066796875	0.269996337890625	0		-0.1650906982421875	5.89053466796875	0		
0.005332027912139893	0.004586599826812744	0		0.5410484619140625	-2.513273193359375	0		-1.126645751953125	-0.1473420715332031	0		-0.8735744018554688	-2.152645751953125	0		0.6335910034179687	-0.78229052734375	0		2.3678427734375	-0.12981611633300782	0		3.86470556640625	0.6536218872070313	0		5.8231865234375	0.2782270812988281	0		-0.19470448303222657	5.870529296875	0		
0.0016328680515289306	2.714020013809204E-4	0		0.47644021606445314	-2.501849609375	0		-1.203282958984375	-0.14570109558105468	0		-0.8763352661132813	-2.154938232421875	0		0.6929801635742188	-0.7774180908203125	0		2.340402099609375	-0.11292821502685547	0		3.86508203125	0.6531015014648438	0		5.83564697265625	0.28547775268554687	0		-0.19510604858398437	5.87118408203125	0		
-0.00414826488494873	-0.006997013092041015	0		0.5285545043945312	-2.50986328125	0		-1.126001220703125	-0.14796107482910156	0		-0.8801776733398438	-2.16019677734375	0		0.6311472778320313	-0.7860127563476562	0		2.406460693359375	-0.1331907196044922	0		3.86041455078125	0.6526655883789062	0		5.840064453125	0.2928497009277344	0		-0.19456527709960938	5.87084814453125	0		
